<?xml version="1.0" encoding="utf-8"?>
<!-- Generator: Adobe Illustrator 23.0.3, SVG Export Plug-In . SVG Version: 6.00 Build 0)  -->
<svg version="1.1" id="Layer_1" xmlns="http://www.w3.org/2000/svg" xmlns:xlink="http://www.w3.org/1999/xlink" x="0px" y="0px"
	 viewBox="0 0 32 32" style="enable-background:new 0 0 32 32;" xml:space="preserve">
<style type="text/css">
	.st0{fill-rule:evenodd;clip-rule:evenodd;fill:#FEFEFE;}
</style>
<g id="Layer_x0020_1">
	<g id="_2226147673920">
		<path class="st0" d="M29.85,8.36c-1.43-2.45-3.37-4.39-5.82-5.82C21.58,1.11,18.9,0.39,16,0.39s-5.58,0.72-8.03,2.15
			C5.52,3.97,3.58,5.91,2.15,8.36C0.72,10.81,0,13.49,0,16.39c0,3.49,1.02,6.62,3.05,9.4c2.04,2.79,4.66,4.71,7.88,5.78
			c0.38,0.07,0.65,0.02,0.83-0.15c0.18-0.17,0.27-0.38,0.27-0.63c0-0.04-0.01-0.42-0.01-1.13c-0.01-0.71-0.01-1.33-0.01-1.85
			l-0.48,0.08c-0.31,0.06-0.69,0.08-1.16,0.07c-0.47-0.01-0.95-0.06-1.45-0.15c-0.5-0.09-0.97-0.3-1.4-0.63
			c-0.43-0.33-0.74-0.75-0.92-1.28l-0.21-0.48c-0.14-0.32-0.36-0.67-0.66-1.06s-0.6-0.65-0.91-0.79l-0.14-0.1
			c-0.1-0.07-0.19-0.15-0.27-0.25c-0.08-0.1-0.15-0.19-0.19-0.29c-0.04-0.1-0.01-0.18,0.1-0.24c0.11-0.06,0.31-0.09,0.6-0.09
			l0.42,0.06c0.28,0.06,0.62,0.22,1.03,0.5c0.41,0.28,0.75,0.64,1.01,1.08c0.32,0.57,0.7,1,1.16,1.3c0.45,0.3,0.9,0.45,1.37,0.45
			c0.46,0,0.85-0.04,1.19-0.1c0.33-0.07,0.65-0.17,0.94-0.31c0.12-0.93,0.47-1.65,1.02-2.15c-0.79-0.09-1.5-0.21-2.13-0.38
			c-0.63-0.17-1.29-0.44-1.96-0.81c-0.68-0.38-1.23-0.84-1.68-1.4c-0.44-0.56-0.81-1.29-1.09-2.19c-0.28-0.9-0.43-1.95-0.43-3.13
			c0-1.68,0.55-3.11,1.65-4.29C6.92,10,6.97,8.58,7.58,7.02c0.4-0.12,1-0.03,1.79,0.28c0.79,0.31,1.37,0.58,1.74,0.8
			c0.37,0.22,0.66,0.41,0.89,0.56c1.29-0.36,2.63-0.54,4-0.54c1.37,0,2.71,0.18,4,0.54l0.79-0.5c0.54-0.33,1.18-0.64,1.92-0.92
			c0.74-0.28,1.3-0.35,1.69-0.23c0.63,1.57,0.68,2.99,0.17,4.25c1.1,1.18,1.65,2.61,1.65,4.29c0,1.18-0.14,2.23-0.43,3.14
			c-0.29,0.91-0.65,1.64-1.1,2.19c-0.45,0.55-1.01,1.01-1.69,1.39c-0.67,0.38-1.33,0.65-1.96,0.81c-0.63,0.17-1.34,0.29-2.13,0.38
			c0.72,0.62,1.08,1.61,1.08,2.96v4.4c0,0.25,0.09,0.46,0.26,0.63c0.17,0.17,0.45,0.22,0.82,0.14c3.22-1.07,5.85-2.99,7.88-5.78
			S32,19.88,32,16.39C32,13.49,31.28,10.81,29.85,8.36z"/>
	</g>
</g>
</svg>
